<?xml version="1.0" encoding="UTF-8"?>
<!DOCTYPE svg PUBLIC "-//W3C//DTD SVG 1.1//EN" "http://www.w3.org/Graphics/SVG/1.1/DTD/svg11.dtd">
<svg xmlns="http://www.w3.org/2000/svg" xmlns:xlink="http://www.w3.org/1999/xlink" version="1.1" width="768px" height="361px" viewBox="-0.5 -0.5 768 361" style="background-color: rgb(24, 20, 29);"><defs><clipPath id="mx-clip-316-30-30-30-0"><rect x="316" y="30" width="30" height="30"/></clipPath><clipPath id="mx-clip-352-30-144-30-0"><rect x="352" y="30" width="144" height="30"/></clipPath><clipPath id="mx-clip-352-60-144-30-0"><rect x="352" y="60" width="144" height="30"/></clipPath><clipPath id="mx-clip-352-90-144-30-0"><rect x="352" y="90" width="144" height="30"/></clipPath><clipPath id="mx-clip-316-240-30-30-0"><rect x="316" y="240" width="30" height="30"/></clipPath><clipPath id="mx-clip-352-240-144-30-0"><rect x="352" y="240" width="144" height="30"/></clipPath><clipPath id="mx-clip-352-270-144-30-0"><rect x="352" y="270" width="144" height="30"/></clipPath><clipPath id="mx-clip-352-300-144-30-0"><rect x="352" y="300" width="144" height="30"/></clipPath><clipPath id="mx-clip-352-330-144-30-0"><rect x="352" y="330" width="144" height="30"/></clipPath><clipPath id="mx-clip-587-30-30-30-0"><rect x="587" y="30" width="30" height="30"/></clipPath><clipPath id="mx-clip-623-30-144-30-0"><rect x="623" y="30" width="144" height="30"/></clipPath><clipPath id="mx-clip-623-60-144-30-0"><rect x="623" y="60" width="144" height="30"/></clipPath><clipPath id="mx-clip-587-90-30-30-0"><rect x="587" y="90" width="30" height="30"/></clipPath><clipPath id="mx-clip-623-90-144-30-0"><rect x="623" y="90" width="144" height="30"/></clipPath><clipPath id="mx-clip-623-120-144-30-0"><rect x="623" y="120" width="144" height="30"/></clipPath><clipPath id="mx-clip-0-150-78-30-0"><rect x="0" y="150" width="78" height="30"/></clipPath><clipPath id="mx-clip-84-150-122-30-0"><rect x="84" y="150" width="122" height="30"/></clipPath><clipPath id="mx-clip-0-180-78-30-0"><rect x="0" y="180" width="78" height="30"/></clipPath><clipPath id="mx-clip-84-180-122-30-0"><rect x="84" y="180" width="122" height="30"/></clipPath><style type="text/css">@import url(https://fonts.googleapis.com/css?family=Permanent+Marker);&#xa;@import url(https://fonts.googleapis.com/css?family=JetBrains+Mono);&#xa;@import url(https://fonts.googleapis.com/css?family=Noto+Sans);&#xa;@import url(https://fonts.googleapis.com/css?family=Permanent+Marker);&#xa;@import url(https://fonts.googleapis.com/css?family=Strait);&#xa;@import url(https://fonts.googleapis.com/css?family=Architects+Daughter);&#xa;@import url(https://fonts.googleapis.com/css?family=Segoi+UI);&#xa;@import url(https://fonts.googleapis.com/css?family=Segoe+UI);&#xa;</style></defs><g><path d="M 316 30 L 316 0 L 496 0 L 496 30" fill="#008a00" stroke="#005700" stroke-miterlimit="10" pointer-events="all"/><path d="M 316 30 L 316 120 L 496 120 L 496 30" fill="none" stroke="#005700" stroke-miterlimit="10" pointer-events="none"/><path d="M 316 30 L 496 30" fill="none" stroke="#005700" stroke-miterlimit="10" pointer-events="none"/><path d="M 346 30 L 346 60 L 346 90 L 346 120" fill="none" stroke="#005700" stroke-miterlimit="10" pointer-events="none"/><g fill="#ffffff" font-family="JetBrains Mono" font-weight="bold" pointer-events="none" text-anchor="middle" font-size="16px"><text x="405.5" y="21.5">users</text></g><path d="M 316 30 M 496 30 M 496 60 L 316 60" fill="none" stroke="rgb(240, 240, 240)" stroke-linecap="square" stroke-miterlimit="10" pointer-events="none"/><path d="M 316 30 M 346 30 M 346 60 M 316 60" fill="none" stroke="rgb(240, 240, 240)" stroke-linecap="square" stroke-miterlimit="10" pointer-events="none"/><g fill="rgb(240, 240, 240)" font-family="JetBrains Mono" font-weight="bold" pointer-events="none" clip-path="url(#mx-clip-316-30-30-30-0)" text-anchor="middle" font-size="16px"><text x="330.5" y="51.5">PK</text></g><path d="M 346 30 M 496 30 M 496 60 M 346 60" fill="none" stroke="rgb(240, 240, 240)" stroke-linecap="square" stroke-miterlimit="10" pointer-events="none"/><g fill="rgb(240, 240, 240)" font-family="JetBrains Mono" font-weight="bold" text-decoration="underline" pointer-events="none" clip-path="url(#mx-clip-352-30-144-30-0)" font-size="16px"><text x="353.5" y="51.5">id</text></g><path d="M 316 60 M 346 60 M 346 90 M 316 90" fill="none" stroke="rgb(240, 240, 240)" stroke-linecap="square" stroke-miterlimit="10" pointer-events="none"/><path d="M 346 60 M 496 60 M 496 90 M 346 90" fill="none" stroke="rgb(240, 240, 240)" stroke-linecap="square" stroke-miterlimit="10" pointer-events="none"/><g fill="rgb(240, 240, 240)" font-family="JetBrains Mono" pointer-events="none" clip-path="url(#mx-clip-352-60-144-30-0)" font-size="16px"><text x="353.5" y="81.5">login</text></g><path d="M 316 90 M 346 90 M 346 120 M 316 120" fill="none" stroke="rgb(240, 240, 240)" stroke-linecap="square" stroke-miterlimit="10" pointer-events="none"/><path d="M 346 90 M 496 90 M 496 120 M 346 120" fill="none" stroke="rgb(240, 240, 240)" stroke-linecap="square" stroke-miterlimit="10" pointer-events="none"/><g fill="rgb(240, 240, 240)" font-family="JetBrains Mono" pointer-events="none" clip-path="url(#mx-clip-352-90-144-30-0)" font-size="16px"><text x="353.5" y="111.5">password</text></g><path d="M 316 240 L 316 210 L 496 210 L 496 240" fill="#008a00" stroke="#005700" stroke-miterlimit="10" pointer-events="none"/><path d="M 316 240 L 316 360 L 496 360 L 496 240" fill="none" stroke="#005700" stroke-miterlimit="10" pointer-events="none"/><path d="M 316 240 L 496 240" fill="none" stroke="#005700" stroke-miterlimit="10" pointer-events="none"/><path d="M 346 240 L 346 270 L 346 300 L 346 330 L 346 360" fill="none" stroke="#005700" stroke-miterlimit="10" pointer-events="none"/><g fill="#ffffff" font-family="JetBrains Mono" font-weight="bold" pointer-events="none" text-anchor="middle" font-size="16px"><text x="405.5" y="231.5">locations</text></g><path d="M 316 240 M 496 240 M 496 270 L 316 270" fill="none" stroke="rgb(240, 240, 240)" stroke-linecap="square" stroke-miterlimit="10" pointer-events="none"/><path d="M 316 240 M 346 240 M 346 270 M 316 270" fill="none" stroke="rgb(240, 240, 240)" stroke-linecap="square" stroke-miterlimit="10" pointer-events="none"/><g fill="rgb(240, 240, 240)" font-family="JetBrains Mono" font-weight="bold" pointer-events="none" clip-path="url(#mx-clip-316-240-30-30-0)" text-anchor="middle" font-size="16px"><text x="330.5" y="261.5">PK</text></g><path d="M 346 240 M 496 240 M 496 270 M 346 270" fill="none" stroke="rgb(240, 240, 240)" stroke-linecap="square" stroke-miterlimit="10" pointer-events="none"/><g fill="rgb(240, 240, 240)" font-family="JetBrains Mono" font-weight="bold" text-decoration="underline" pointer-events="none" clip-path="url(#mx-clip-352-240-144-30-0)" font-size="16px"><text x="353.5" y="261.5">id</text></g><path d="M 316 270 M 346 270 M 346 300 M 316 300" fill="none" stroke="rgb(240, 240, 240)" stroke-linecap="square" stroke-miterlimit="10" pointer-events="none"/><path d="M 346 270 M 496 270 M 496 300 M 346 300" fill="none" stroke="rgb(240, 240, 240)" stroke-linecap="square" stroke-miterlimit="10" pointer-events="none"/><g fill="rgb(240, 240, 240)" font-family="JetBrains Mono" pointer-events="none" clip-path="url(#mx-clip-352-270-144-30-0)" font-size="16px"><text x="353.5" y="291.5">name</text></g><path d="M 316 300 M 346 300 M 346 330 M 316 330" fill="none" stroke="rgb(240, 240, 240)" stroke-linecap="square" stroke-miterlimit="10" pointer-events="none"/><path d="M 346 300 M 496 300 M 496 330 M 346 330" fill="none" stroke="rgb(240, 240, 240)" stroke-linecap="square" stroke-miterlimit="10" pointer-events="none"/><g fill="rgb(240, 240, 240)" font-family="JetBrains Mono" pointer-events="none" clip-path="url(#mx-clip-352-300-144-30-0)" font-size="16px"><text x="353.5" y="321.5">latitude</text></g><path d="M 316 330 M 346 330 M 346 360 M 316 360" fill="none" stroke="rgb(240, 240, 240)" stroke-linecap="square" stroke-miterlimit="10" pointer-events="none"/><path d="M 346 330 M 496 330 M 496 360 M 346 360" fill="none" stroke="rgb(240, 240, 240)" stroke-linecap="square" stroke-miterlimit="10" pointer-events="none"/><g fill="rgb(240, 240, 240)" font-family="JetBrains Mono" pointer-events="none" clip-path="url(#mx-clip-352-330-144-30-0)" font-size="16px"><text x="353.5" y="351.5">longitude</text></g><path d="M 587 30 L 587 0 L 767 0 L 767 30" fill="#008a00" stroke="#005700" stroke-miterlimit="10" pointer-events="none"/><path d="M 587 30 L 587 150 L 767 150 L 767 30" fill="none" stroke="#005700" stroke-miterlimit="10" pointer-events="none"/><path d="M 587 30 L 767 30" fill="none" stroke="#005700" stroke-miterlimit="10" pointer-events="none"/><path d="M 617 30 L 617 60 L 617 90 L 617 120 L 617 150" fill="none" stroke="#005700" stroke-miterlimit="10" pointer-events="none"/><g fill="#ffffff" font-family="JetBrains Mono" font-weight="bold" pointer-events="none" text-anchor="middle" font-size="16px"><text x="676.5" y="21.5">sessions</text></g><path d="M 587 30 M 767 30 M 767 60 L 587 60" fill="none" stroke="rgb(240, 240, 240)" stroke-linecap="square" stroke-miterlimit="10" pointer-events="none"/><path d="M 587 30 M 617 30 M 617 60 M 587 60" fill="none" stroke="rgb(240, 240, 240)" stroke-linecap="square" stroke-miterlimit="10" pointer-events="none"/><g fill="rgb(240, 240, 240)" font-family="JetBrains Mono" font-weight="bold" pointer-events="none" clip-path="url(#mx-clip-587-30-30-30-0)" text-anchor="middle" font-size="16px"><text x="601.5" y="51.5">PK</text></g><path d="M 617 30 M 767 30 M 767 60 M 617 60" fill="none" stroke="rgb(240, 240, 240)" stroke-linecap="square" stroke-miterlimit="10" pointer-events="none"/><g fill="rgb(240, 240, 240)" font-family="JetBrains Mono" font-weight="bold" text-decoration="underline" pointer-events="none" clip-path="url(#mx-clip-623-30-144-30-0)" font-size="16px"><text x="624.5" y="51.5">id</text></g><path d="M 587 60 M 617 60 M 617 90 M 587 90" fill="none" stroke="rgb(240, 240, 240)" stroke-linecap="square" stroke-miterlimit="10" pointer-events="none"/><path d="M 617 60 M 767 60 M 767 90 M 617 90" fill="none" stroke="rgb(240, 240, 240)" stroke-linecap="square" stroke-miterlimit="10" pointer-events="none"/><g fill="rgb(240, 240, 240)" font-family="JetBrains Mono" pointer-events="none" clip-path="url(#mx-clip-623-60-144-30-0)" font-size="16px"><text x="624.5" y="81.5">id</text></g><path d="M 587 90 M 617 90 M 617 120 M 587 120" fill="none" stroke="rgb(240, 240, 240)" stroke-linecap="square" stroke-miterlimit="10" pointer-events="none"/><g fill="rgb(240, 240, 240)" font-family="JetBrains Mono" pointer-events="none" clip-path="url(#mx-clip-587-90-30-30-0)" text-anchor="middle" font-size="16px"><text x="601.5" y="111.5">FK</text></g><path d="M 617 90 M 767 90 M 767 120 M 617 120" fill="none" stroke="rgb(240, 240, 240)" stroke-linecap="square" stroke-miterlimit="10" pointer-events="none"/><g fill="rgb(240, 240, 240)" font-family="JetBrains Mono" pointer-events="none" clip-path="url(#mx-clip-623-90-144-30-0)" font-size="16px"><text x="624.5" y="111.5">user_id</text></g><path d="M 587 120 M 617 120 M 617 150 M 587 150" fill="none" stroke="rgb(240, 240, 240)" stroke-linecap="square" stroke-miterlimit="10" pointer-events="none"/><path d="M 617 120 M 767 120 M 767 150 M 617 150" fill="none" stroke="rgb(240, 240, 240)" stroke-linecap="square" stroke-miterlimit="10" pointer-events="none"/><g fill="rgb(240, 240, 240)" font-family="JetBrains Mono" pointer-events="none" clip-path="url(#mx-clip-623-120-144-30-0)" font-size="16px"><text x="624.5" y="141.5">expiresAt</text></g><path d="M 587 105 L 557 105 L 526 45 L 496 45" fill="none" stroke="rgb(240, 240, 240)" stroke-miterlimit="10" pointer-events="none"/><path d="M 582 110 L 582 100 M 577 110 L 577 100" fill="none" stroke="rgb(240, 240, 240)" stroke-miterlimit="10" pointer-events="none"/><path d="M 501 40 L 501 50 M 506 40 L 506 50" fill="none" stroke="rgb(240, 240, 240)" stroke-miterlimit="10" pointer-events="none"/><path d="M 206 195 L 236 195 L 286 255 L 316 255" fill="none" stroke="rgb(240, 240, 240)" stroke-miterlimit="10" pointer-events="none"/><path d="M 216 190 L 216 200 M 206 200 L 216 195 L 206 190" fill="none" stroke="rgb(240, 240, 240)" stroke-miterlimit="10" pointer-events="none"/><path d="M 311 260 L 311 250 M 306 260 L 306 250" fill="none" stroke="rgb(240, 240, 240)" stroke-miterlimit="10" pointer-events="none"/><path d="M 0 150 L 0 120 L 206 120 L 206 150" fill="#008a00" stroke="#005700" stroke-miterlimit="10" pointer-events="none"/><path d="M 0 150 L 0 210 L 206 210 L 206 150" fill="none" stroke="#005700" stroke-miterlimit="10" pointer-events="none"/><path d="M 0 150 L 206 150" fill="none" stroke="#005700" stroke-miterlimit="10" pointer-events="none"/><path d="M 78.29 150 L 78.29 180 L 78.29 210" fill="none" stroke="#005700" stroke-miterlimit="10" pointer-events="none"/><g fill="#ffffff" font-family="JetBrains Mono" font-weight="bold" pointer-events="none" text-anchor="middle" font-size="16px"><text x="102.5" y="141.5">locations_users</text></g><path d="M 0 150 M 206 150 M 206 180 L 0 180" fill="none" stroke="rgb(240, 240, 240)" stroke-linecap="square" stroke-miterlimit="10" pointer-events="none"/><path d="M 0 150 M 78.29 150 M 78.29 180 M 0 180" fill="none" stroke="rgb(240, 240, 240)" stroke-linecap="square" stroke-miterlimit="10" pointer-events="none"/><g fill="rgb(240, 240, 240)" font-family="JetBrains Mono" font-weight="bold" pointer-events="none" clip-path="url(#mx-clip-0-150-78-30-0)" text-anchor="middle" font-size="16px"><text x="38.65" y="171.5">PK, FK2</text></g><path d="M 78.29 150 M 206 150 M 206 180 M 78.29 180" fill="none" stroke="rgb(240, 240, 240)" stroke-linecap="square" stroke-miterlimit="10" pointer-events="none"/><g fill="rgb(240, 240, 240)" font-family="JetBrains Mono" font-weight="bold" text-decoration="underline" pointer-events="none" clip-path="url(#mx-clip-84-150-122-30-0)" font-size="16px"><text x="85.79" y="171.5">user_id</text></g><path d="M 0 180 M 78.29 180 M 78.29 210 M 0 210" fill="none" stroke="rgb(240, 240, 240)" stroke-linecap="square" stroke-miterlimit="10" pointer-events="none"/><g fill="rgb(240, 240, 240)" font-family="JetBrains Mono" font-weight="bold" pointer-events="none" clip-path="url(#mx-clip-0-180-78-30-0)" text-anchor="middle" font-size="16px"><text x="38.65" y="201.5">PK, FK1</text></g><path d="M 78.29 180 M 206 180 M 206 210 M 78.29 210" fill="none" stroke="rgb(240, 240, 240)" stroke-linecap="square" stroke-miterlimit="10" pointer-events="none"/><g fill="rgb(240, 240, 240)" font-family="JetBrains Mono" font-weight="bold" text-decoration="underline" pointer-events="none" clip-path="url(#mx-clip-84-180-122-30-0)" font-size="16px"><text x="85.79" y="201.5">location_id</text></g><path d="M 225.5 165 L 236 165 L 286 45 L 316 45" fill="none" stroke="rgb(240, 240, 240)" stroke-miterlimit="10" pointer-events="none"/><ellipse cx="221" cy="165" rx="4" ry="4" fill="none" stroke="rgb(240, 240, 240)" pointer-events="none"/><path d="M 206 170 L 216 165 L 206 160 M 216 165 L 206 165" fill="none" stroke="rgb(240, 240, 240)" stroke-miterlimit="10" pointer-events="none"/><path d="M 311 50 L 311 40 M 306 50 L 306 40" fill="none" stroke="rgb(240, 240, 240)" stroke-miterlimit="10" pointer-events="none"/></g></svg>